<?xml version="1.0" standalone="no"?>
<!DOCTYPE svg PUBLIC "-//W3C//DTD SVG 20010904//EN"
 "http://www.w3.org/TR/2001/REC-SVG-20010904/DTD/svg10.dtd">
<svg version="1.0" xmlns="http://www.w3.org/2000/svg"
 width="16.000000pt" height="16.000000pt" viewBox="0 0 16.000000 16.000000"
 preserveAspectRatio="xMidYMid meet">
<metadata>
Created by potrace 1.11, written by Peter Selinger 2001-2013
</metadata>
<g transform="translate(0.000000,16.000000) scale(0.002500,-0.002500)"
fill="#000000" stroke="none">
<path d="M5155 6199 c-22 -4 -51 -10 -64 -13 -359 -77 -642 -419 -657 -794 -4
-115 12 -247 38 -311 6 -14 12 -32 14 -39 4 -22 62 -132 94 -179 17 -24 30
-45 30 -47 0 -7 -195 -213 -445 -471 -44 -45 -145 -151 -225 -234 -80 -84
-183 -192 -229 -239 -45 -48 -150 -157 -233 -243 l-150 -157 -76 58 c-195 146
-430 259 -647 309 -127 30 -125 30 -186 36 -30 4 -61 8 -68 11 -18 6 -327 6
-361 0 -14 -3 -47 -7 -75 -11 -27 -3 -83 -13 -124 -20 -41 -8 -75 -14 -76 -12
-2 1 -33 97 -70 212 -37 116 -83 256 -101 313 -36 110 -40 132 -23 132 23 0
156 97 214 156 173 175 257 389 250 634 -8 316 -182 593 -461 737 -144 74
-252 99 -419 96 -274 -4 -536 -146 -695 -378 -198 -287 -191 -689 15 -980 115
-162 270 -271 472 -331 77 -23 107 -27 235 -27 l147 -1 76 -236 c42 -129 90
-273 105 -320 l28 -85 -93 -46 c-331 -164 -585 -395 -768 -696 -61 -100 -117
-214 -148 -301 -11 -31 -24 -66 -29 -77 -9 -23 -37 -126 -45 -170 -31 -169
-37 -228 -38 -355 -2 -237 20 -389 87 -592 154 -468 500 -859 950 -1072 92
-44 279 -110 336 -120 14 -3 27 -5 30 -6 3 -2 8 -2 12 -1 4 0 18 -3 30 -8 22
-8 46 -12 171 -27 123 -14 327 -9 457 11 25 4 54 9 65 10 11 2 49 11 85 20 36
9 73 18 82 20 9 2 26 9 37 15 12 6 21 9 21 6 0 -7 142 50 226 91 312 155 579
398 754 688 49 81 125 236 151 307 7 21 15 38 19 38 3 0 46 -12 95 -26 50 -14
98 -27 107 -29 9 -2 51 -13 93 -25 42 -12 84 -23 93 -25 9 -2 51 -13 92 -25
l75 -21 0 -107 c1 -117 10 -193 27 -226 6 -12 11 -23 10 -26 -4 -10 21 -76 49
-131 111 -223 315 -388 559 -455 81 -22 255 -29 345 -15 476 77 802 529 717
996 -47 263 -194 472 -428 607 -64 37 -184 83 -244 93 -19 3 -48 8 -64 11 -39
8 -188 7 -240 -2 -71 -11 -78 -13 -145 -35 -211 -71 -398 -231 -496 -428 -29
-57 6 -59 -280 19 -276 75 -295 80 -301 80 -3 0 -3 19 1 43 10 66 13 88 20
142 7 59 8 309 1 345 -2 14 -7 48 -11 75 -27 212 -134 520 -232 668 -15 23
-34 54 -42 69 -8 15 -21 36 -30 46 -9 10 -27 33 -41 52 -30 43 -37 52 -78 97
l-32 36 22 25 c13 13 50 52 83 87 33 34 139 144 235 244 96 101 213 223 260
271 47 49 155 161 240 250 85 90 182 191 215 225 33 34 99 103 146 152 l86 91
54 -34 c207 -129 485 -163 713 -88 144 48 269 127 363 229 69 76 70 77 110
140 60 97 97 198 120 330 7 42 7 202 -1 250 -48 313 -270 582 -566 684 -36 13
-74 25 -85 27 -11 2 -31 7 -45 10 -40 10 -251 13 -295 3z"/>
</g>
</svg>
